<svg xmlns="http://www.w3.org/2000/svg" xmlns:xlink="http://www.w3.org/1999/xlink" aria-hidden="true" role="img" class="iconify iconify--logos" width="35.93" height="32" preserveAspectRatio="xMidYMid meet" viewBox="0 0 256 228"><path fill="#61DAFB" d="M210.483 73.824a171.49 171.49 0 0 0-8.24-2.597c.465-1.9.893-3.777 1.273-5.621c2.204-10.626 2.211-21.798-.005-32.464c-2.216-10.666-7.186-20.676-14.326-28.892c-7.14-8.215-16.026-14.4-25.59-17.75c-9.562-3.35-19.74-4.98-29.543-4.98c-9.806 0-19.976 1.63-29.54 4.98c-9.565 3.35-18.45 9.535-25.59 17.75c-7.14 8.216-12.11 18.226-14.326 28.892c-2.216 10.666-2.222 21.838-.005 32.464c.38 1.844.808 3.721 1.273 5.621c-2.67.933-5.315 1.916-7.912 2.95C31.222 70.817 0 89.976 0 113.668c0 23.692 31.222 42.851 66.64 54.84c2.597 1.033 5.24 2.016 7.91 2.947a171.49 171.49 0 0 0-1.273 5.622c-2.204 10.626-2.211 21.798.005 32.464c2.216 10.666 7.186 20.676 14.326 28.892c7.14 8.215 16.026 14.4 25.59 17.75c9.562 3.35 19.74 4.98 29.543 4.98c9.804 0 19.977-1.63 29.54-4.98c9.565-3.35 18.45-9.535 25.59-17.75c7.14-8.216 12.11-18.226 14.326-28.892c2.216-10.666 2.222-21.838.005-32.464a171.49 171.49 0 0 0-1.273-5.621c2.67-.933 5.315-1.916 7.91-2.947c35.42-11.99 66.64-31.148 66.64-54.84c0-23.692-31.22-42.851-66.64-54.84Zm-13.384 43.268a4.012 4.012 0 0 1-2.826-1.151a4.015 4.015 0 0 1-1.15-2.83v-8.506a4.016 4.016 0 0 1 4.728-4.737l5.964 2.98a4.012 4.012 0 0 1 2.827 1.15a4.012 4.012 0 0 1 1.148 2.83v8.505a4.015 4.015 0 0 1-4.726 4.735l-5.965-2.98Zm-10.125-5.527l.256-11.262a4.012 4.012 0 0 1 5.89-3.446a4.012 4.012 0 0 1 1.895 3.45l.255 11.259a4.012 4.012 0 0 1-1.895 3.448a4.012 4.012 0 0 1-5.89-3.447Zm-30.114 6.674a4.015 4.015 0 0 1-2.826-1.15a4.015 4.015 0 0 1-1.15-2.83v-4.254a4.015 4.015 0 0 1 4.727-4.737l5.964 2.98a4.012 4.012 0 0 1 2.827 1.15a4.012 4.012 0 0 1 1.148 2.83v4.254a4.015 4.015 0 0 1-4.726 4.735l-5.964-2.98Zm-9.892 8.668a3.977 3.977 0 0 1-2.67-1.09a3.978 3.978 0 0 1-1.157-2.736V99.19a4.015 4.015 0 0 1 4.728-4.737l5.964 2.98a4.012 4.012 0 0 1 2.826 1.15a4.012 4.012 0 0 1 1.148 2.83v4.25a4.015 4.015 0 0 1-4.726 4.737l-5.964-2.982Zm-20.195 1.37a4.012 4.012 0 0 1-2.826-1.15a4.012 4.012 0 0 1-1.15-2.83v-8.506a4.016 4.016 0 0 1 4.728-4.737l5.964 2.98a4.012 4.012 0 0 1 2.827 1.15a4.012 4.012 0 0 1 1.148 2.83v8.505a4.015 4.015 0 0 1-4.726 4.735l-5.965-2.98Zm-9.893 8.667a3.977 3.977 0 0 1-2.67-1.09a3.978 3.978 0 0 1-1.157-2.736V99.19a4.015 4.015 0 0 1 4.728-4.737l5.964 2.98a4.012 4.012 0 0 1 2.826 1.15a4.012 4.012 0 0 1 1.148 2.83v4.25a4.015 4.015 0 0 1-4.726 4.737l-5.964-2.982Zm-20.196 1.37a4.012 4.012 0 0 1-2.825-1.15a4.012 4.012 0 0 1-1.15-2.83v-8.506a4.016 4.016 0 0 1 4.727-4.737l5.964 2.98a4.012 4.012 0 0 1 2.827 1.15a4.012 4.012 0 0 1 1.148 2.83v8.505a4.015 4.015 0 0 1-4.726 4.735l-5.964-2.98Zm-17.16-18.518a3.99 3.99 0 0 1-2.67-1.09a3.99 3.99 0 0 1-1.158-2.735V83.517a4.015 4.015 0 0 1 4.727-4.737l5.964 2.979a4.012 4.012 0 0 1 2.826 1.15a4.012 4.012 0 0 1 1.148 2.83v4.253a4.015 4.015 0 0 1-4.726 4.736l-5.964-2.98Zm-9.893 8.667a3.977 3.977 0 0 1-2.67-1.09a3.978 3.978 0 0 1-1.157-2.736V99.19a4.015 4.015 0 0 1 4.728-4.737l5.964 2.98a4.012 4.012 0 0 1 2.826 1.15a4.012 4.012 0 0 1 1.148 2.83v4.25a4.015 4.015 0 0 1-4.726 4.737l-5.964-2.982ZM234.93 84.255a3.99 3.99 0 0 1-2.67-1.09a3.99 3.99 0 0 1-1.158-2.735V66.04a4.015 4.015 0 0 1 4.727-4.737l5.965 2.98a4.012 4.012 0 0 1 2.826 1.15a4.012 4.012 0 0 1 1.148 2.83v14.39a4.015 4.015 0 0 1-4.726 4.737l-5.965-2.98Zm-20.196 1.37a4.012 4.012 0 0 1-2.825-1.15a4.012 4.012 0 0 1-1.15-2.83v-8.506a4.016 4.016 0 0 1 4.727-4.737l5.964 2.98a4.012 4.012 0 0 1 2.827 1.15a4.012 4.012 0 0 1 1.148 2.83v8.505a4.015 4.015 0 0 1-4.726 4.735l-5.964-2.98Zm-9.892 8.667a3.977 3.977 0 0 1-2.67-1.09a3.978 3.978 0 0 1-1.157-2.736V99.19a4.015 4.015 0 0 1 4.728-4.737l5.964 2.98a4.012 4.012 0 0 1 2.826 1.15a4.012 4.012 0 0 1 1.148 2.83v4.25a4.015 4.015 0 0 1-4.726 4.737l-5.964-2.982Zm-20.196 1.37a4.012 4.012 0 0 1-2.825-1.15a4.012 4.012 0 0 1-1.15-2.83v-8.506a4.016 4.016 0 0 1 4.727-4.737l5.964 2.98a4.012 4.012 0 0 1 2.827 1.15a4.012 4.012 0 0 1 1.148 2.83v8.505a4.015 4.015 0 0 1-4.726 4.735l-5.964-2.98Zm-9.893 8.667a3.977 3.977 0 0 1-2.67-1.09a3.978 3.978 0 0 1-1.157-2.736V99.19a4.015 4.015 0 0 1 4.728-4.737l5.964 2.98a4.012 4.012 0 0 1 2.826 1.15a4.012 4.012 0 0 1 1.148 2.83v4.25a4.015 4.015 0 0 1-4.726 4.737l-5.964-2.982Zm-20.195 1.37a4.012 4.012 0 0 1-2.826-1.15a4.012 4.012 0 0 1-1.15-2.83v-8.506a4.016 4.016 0 0 1 4.727-4.737l5.964 2.98a4.012 4.012 0 0 1 2.827 1.15a4.012 4.012 0 0 1 1.148 2.83v8.505a4.015 4.015 0 0 1-4.726 4.735l-5.964-2.98Zm-9.893 8.667a3.977 3.977 0 0 1-2.67-1.09a3.978 3.978 0 0 1-1.157-2.736V99.19a4.015 4.015 0 0 1 4.728-4.737l5.964 2.98a4.012 4.012 0 0 1 2.826 1.15a4.012 4.012 0 0 1 1.148 2.83v4.25a4.015 4.015 0 0 1-4.726 4.737l-5.964-2.982Z"></path></svg>
